<?xml version="1.0" standalone="no"?>
<!DOCTYPE svg PUBLIC "-//W3C//DTD SVG 20010904//EN"
 "http://www.w3.org/TR/2001/REC-SVG-20010904/DTD/svg10.dtd">
<svg version="1.0" xmlns="http://www.w3.org/2000/svg"
 width="1168.000000pt" height="1168.000000pt" viewBox="0 0 1168.000000 1168.000000"
 preserveAspectRatio="xMidYMid meet">
<metadata>
Created by potrace 1.15, written by Peter Selinger 2001-2017
</metadata>
<g transform="translate(0.000000,1168.000000) scale(0.100000,-0.100000)"
fill="#000000" stroke="none">
<path d="M0 6388 c1 -3640 4 -5287 11 -5275 6 9 12 25 14 35 2 9 13 51 23 92
11 41 25 145 32 230 10 123 16 160 31 181 12 17 19 44 19 73 0 25 4 46 9 46 5
0 12 11 15 25 4 14 11 25 16 25 6 0 10 9 10 21 0 11 9 34 20 49 11 16 25 55
32 87 6 32 15 62 19 67 5 6 9 24 9 42 0 27 9 40 60 81 33 26 60 56 60 66 0 9
5 17 10 17 6 0 10 20 10 45 0 48 25 97 72 145 32 32 48 63 48 90 0 41 53 104
124 149 53 33 90 38 141 20 44 -16 151 19 197 65 33 33 137 80 193 89 54 8
232 83 322 135 49 28 115 57 148 66 110 28 219 73 300 123 44 27 130 76 190
108 61 32 126 71 146 86 20 16 44 29 52 29 8 0 20 7 27 15 6 8 43 29 81 46 37
17 76 40 85 50 9 11 21 19 26 19 6 0 21 9 35 20 14 11 34 20 43 20 10 0 23 6
29 14 6 8 51 26 99 41 48 14 123 44 167 66 44 21 111 46 148 55 38 9 74 23 82
30 7 8 21 14 30 14 8 0 53 35 99 78 92 87 141 126 171 136 12 4 4 -8 -20 -29
-101 -90 -235 -216 -299 -281 -39 -39 -85 -81 -103 -93 -17 -12 -35 -32 -39
-44 -3 -12 -34 -85 -69 -162 -39 -88 -67 -166 -74 -209 -7 -38 -19 -87 -27
-110 -49 -135 -71 -215 -67 -237 2 -14 -3 -43 -12 -65 -18 -41 -49 -204 -65
-339 -33 -291 -17 -923 34 -1355 8 -69 22 -188 31 -265 9 -77 25 -181 36 -232
10 -50 19 -113 19 -138 0 -25 7 -59 15 -74 8 -16 23 -67 34 -112 10 -46 26
-107 34 -135 12 -44 12 -56 1 -84 -8 -18 -14 -34 -14 -36 0 -2 295 -4 655 -4
360 0 655 2 655 4 0 3 -4 16 -9 29 -21 55 -73 327 -76 397 -1 41 -8 104 -14
140 -7 36 -19 101 -27 145 -8 44 -19 116 -24 161 -5 44 -11 91 -14 105 -10 42
-30 301 -32 394 0 50 -6 119 -12 155 -12 70 -35 286 -52 495 -6 72 -16 162
-21 200 -6 39 -15 158 -19 265 -7 143 -14 216 -30 275 -32 126 -55 503 -40
670 4 44 3 531 -2 580 -7 83 8 383 22 435 15 57 21 140 10 140 -5 0 -17 -12
-27 -26 -10 -14 -34 -47 -54 -73 -20 -26 -46 -67 -57 -92 -19 -41 -20 -42 -21
-16 -1 36 13 61 63 115 82 87 85 125 14 202 -68 72 -139 162 -158 198 -8 15
-25 38 -37 52 -22 23 -41 85 -29 97 3 3 10 -7 16 -23 6 -16 19 -37 28 -47 9
-11 21 -30 27 -43 11 -27 76 -107 177 -220 80 -88 147 -198 143 -234 -1 -14
-3 -31 -4 -38 0 -7 -6 -10 -12 -6 -6 3 -9 19 -7 35 3 16 1 29 -4 29 -4 0 -8 6
-8 14 0 8 -5 18 -12 22 -14 9 -5 -202 12 -256 6 -19 19 -82 30 -140 11 -58 26
-127 34 -155 8 -27 21 -73 29 -102 15 -53 47 -110 47 -83 0 14 -19 100 -62
278 -11 46 -17 86 -15 89 6 5 18 -37 67 -222 35 -133 86 -240 137 -288 18 -17
33 -37 33 -44 0 -6 4 -14 10 -18 12 -8 -15 81 -31 101 -6 8 -10 17 -7 19 3 3
10 0 15 -7 20 -26 90 -164 103 -203 25 -80 50 -112 99 -131 75 -28 194 -90
242 -126 24 -18 71 -51 103 -73 32 -21 79 -58 105 -80 25 -23 71 -56 101 -74
39 -23 71 -55 110 -108 34 -46 90 -103 148 -150 103 -84 259 -245 300 -310 15
-24 29 -43 32 -43 12 0 28 18 58 62 18 26 46 56 62 68 40 29 98 154 115 251 7
42 18 86 24 98 7 12 14 50 18 85 5 60 4 66 -21 90 -44 45 -43 98 4 148 11 12
20 36 20 53 0 50 65 163 136 236 35 37 72 87 83 111 10 24 39 65 65 91 25 26
46 53 46 60 0 7 16 39 36 72 20 33 49 96 66 140 34 94 102 231 129 261 11 11
19 29 19 39 0 10 15 48 34 84 18 36 55 129 80 206 26 77 56 167 67 200 33 93
41 137 30 148 -7 7 -12 4 -17 -9 -15 -45 -46 -104 -55 -104 -5 0 -9 9 -9 20 0
11 4 20 8 20 4 0 9 24 10 53 1 28 5 65 8 81 5 21 3 27 -7 24 -8 -3 -14 -11
-14 -19 0 -8 -10 -25 -22 -39 -13 -14 -23 -28 -23 -32 0 -5 0 -10 0 -13 0 -10
-63 -75 -68 -70 -3 2 3 20 12 39 9 19 16 38 16 43 0 5 11 16 25 23 15 8 30 29
37 51 6 21 22 48 34 60 13 13 24 32 24 44 0 24 49 106 87 147 17 18 34 61 54
135 25 93 30 133 36 288 5 174 13 213 37 198 6 -4 29 -10 51 -14 l40 -6 -42
-2 c-36 -1 -43 -4 -43 -21 0 -10 9 -24 20 -30 19 -10 19 -12 4 -27 -24 -25
-34 -59 -34 -122 0 -57 23 -155 42 -178 7 -9 7 -13 -1 -13 -6 0 -11 5 -11 10
0 6 -9 10 -20 10 -21 0 -70 -83 -70 -118 0 -30 -25 -83 -59 -126 -50 -62 -45
-101 36 -276 14 -30 32 -73 39 -94 8 -22 23 -58 33 -80 53 -115 69 -195 52
-254 -7 -22 -7 -42 0 -59 5 -14 11 -115 13 -224 2 -109 7 -202 10 -207 3 -5 1
-36 -5 -68 -8 -44 -8 -80 1 -142 7 -46 13 -138 14 -205 2 -168 -34 -648 -68
-917 -9 -63 -15 -144 -14 -180 2 -82 -18 -299 -37 -410 -8 -47 -15 -106 -15
-131 0 -26 -5 -71 -11 -100 -5 -30 -14 -90 -19 -134 -24 -212 -32 -266 -46
-335 -9 -41 -16 -101 -15 -132 0 -32 -4 -70 -10 -84 -15 -40 -50 -278 -54
-364 -3 -71 -25 -185 -40 -209 -3 -6 -8 -53 -9 -104 -1 -50 -8 -110 -14 -132
-28 -99 -56 -214 -64 -260 -5 -27 -11 -65 -15 -83 l-5 -32 651 0 c358 0 651 2
651 4 0 3 -11 17 -25 32 -14 15 -25 36 -25 48 1 18 3 16 17 -9 21 -40 60 -75
82 -75 9 0 35 9 57 19 21 10 86 28 144 40 58 12 179 40 270 62 230 56 403 92
495 104 28 4 115 22 195 42 80 19 181 41 225 48 44 7 103 22 130 33 28 12 88
32 135 46 47 14 99 34 116 45 32 19 32 19 31 108 0 48 3 97 6 109 4 11 1 28
-6 38 -12 16 -25 17 -167 8 -102 -7 -191 -19 -260 -36 -58 -14 -125 -25 -150
-26 -47 -1 -96 -9 -190 -34 -30 -8 -104 -27 -165 -41 -60 -14 -139 -34 -175
-45 -36 -10 -135 -37 -220 -61 -85 -23 -175 -50 -200 -60 -25 -10 -94 -33
-155 -53 -60 -19 -119 -38 -129 -42 -17 -7 -19 -3 -14 38 3 25 13 61 22 79 10
19 21 66 26 104 5 39 15 99 23 135 8 36 24 112 36 169 12 58 25 110 29 115 4
6 10 36 14 66 4 30 14 108 22 173 9 65 23 128 31 140 9 13 15 44 15 77 0 30
10 114 21 185 11 72 22 153 24 181 2 28 11 91 19 140 8 49 18 123 21 164 4 41
9 84 11 95 3 11 9 76 14 145 6 69 14 159 20 200 13 108 14 713 0 775 -6 28
-17 91 -24 140 -16 107 -86 380 -116 450 -44 102 -78 171 -104 210 -41 60
-137 164 -176 191 l-35 24 35 0 c19 0 62 -6 95 -14 33 -8 87 -17 119 -21 33
-4 101 -20 151 -35 50 -16 138 -36 196 -44 192 -30 358 -70 584 -141 240 -75
388 -116 500 -138 129 -27 205 -45 280 -67 38 -11 83 -20 98 -20 16 0 61 -7
101 -17 142 -32 262 -62 316 -78 30 -9 75 -21 100 -27 25 -5 84 -18 131 -29
50 -12 97 -17 113 -13 44 11 145 -45 205 -115 28 -32 51 -68 51 -79 0 -34 11
-52 41 -68 16 -8 29 -20 29 -28 0 -7 10 -18 23 -23 13 -6 48 -48 79 -94 54
-82 56 -86 62 -173 4 -50 12 -98 17 -107 5 -10 9 -35 9 -56 0 -21 9 -51 20
-68 11 -16 20 -42 20 -56 0 -25 23 -105 41 -144 5 -11 13 -40 19 -65 18 -87
23 -105 30 -115 4 -5 6 -28 5 -50 -2 -22 1 -44 5 -50 12 -17 20 -56 30 -143 5
-46 13 -89 18 -95 6 -7 20 -56 31 -110 12 -54 27 -108 35 -120 7 -12 21 -48
31 -80 9 -31 20 -57 25 -57 4 0 16 -34 25 -75 10 -41 21 -75 24 -75 3 0 5 -20
3 -45 -2 -25 0 -51 6 -58 5 -6 13 -39 17 -71 4 -32 11 -68 15 -80 12 -30 23
-60 25 -68 2 -5 4 -9 5 -10 2 -2 8 -98 15 -213 8 -157 16 -219 28 -244 9 -18
19 -49 23 -70 7 -41 32 -136 45 -166 17 -43 38 -165 44 -265 4 -58 11 -109 15
-115 11 -14 31 -101 37 -157 l5 -48 44 0 44 0 0 5840 0 5840 -5840 0 -5840 0
0 -5292z m5666 3356 c90 -29 201 -91 259 -144 22 -21 66 -49 99 -64 32 -14 73
-38 90 -54 28 -24 86 -56 203 -110 18 -8 43 -31 57 -51 13 -20 45 -58 70 -86
44 -48 80 -99 178 -250 62 -95 74 -126 87 -224 6 -46 20 -102 30 -125 11 -23
21 -66 22 -96 2 -30 9 -79 16 -108 8 -29 13 -72 12 -95 -3 -104 11 -425 20
-452 10 -31 23 -307 19 -425 -2 -36 -3 -108 -3 -160 l0 -95 25 3 c14 2 41 5
60 8 45 7 98 -27 124 -80 23 -47 47 -205 51 -341 4 -108 -9 -214 -31 -257 -8
-15 -16 -62 -18 -105 -4 -81 -20 -162 -38 -200 -6 -12 -8 -41 -4 -67 8 -52
-16 -201 -41 -253 -8 -18 -31 -42 -50 -54 -35 -22 -55 -21 -28 1 23 19 18 27
-15 22 -38 -5 -56 9 -65 54 -3 20 -14 52 -23 72 -14 29 -15 36 -3 40 7 2 22
13 33 24 23 23 20 90 -7 136 -17 28 -17 30 13 93 26 56 30 72 26 129 -6 76
-19 174 -34 245 -6 28 -15 84 -20 125 -5 41 -14 106 -20 145 -6 38 -8 89 -4
112 6 38 9 43 33 43 14 0 40 12 56 26 l30 25 -54 -6 -54 -6 7 58 c13 128 21
308 20 488 -1 241 -23 685 -40 790 -4 22 -8 54 -10 71 -2 18 -18 72 -37 120
-19 49 -38 105 -42 124 -9 43 -59 149 -99 210 -102 157 -129 192 -196 261 -53
53 -105 93 -175 134 -55 31 -111 68 -125 80 -29 26 -73 49 -111 58 -14 4 -46
24 -70 45 -52 45 -178 123 -234 144 -22 9 -85 19 -140 23 -138 10 -154 24 -29
25 82 0 116 -5 180 -26z m-1843 -199 c-15 -19 -41 -51 -57 -71 -17 -20 -53
-46 -80 -58 -28 -13 -65 -35 -82 -49 -18 -15 -50 -37 -73 -50 -40 -23 -66 -53
-118 -136 -79 -125 -170 -228 -205 -230 -5 -1 -8 11 -8 26 0 18 12 36 39 59
21 19 53 58 69 86 38 67 147 174 235 233 37 25 72 45 77 45 5 0 28 18 52 41
24 22 62 53 85 70 24 16 47 39 53 49 6 11 18 20 26 20 12 0 9 -9 -13 -35z
m1488 -605 c11 0 18 -4 15 -8 -3 -5 9 -7 27 -4 25 3 29 1 17 -7 -12 -9 -10
-11 13 -11 15 0 27 -4 27 -9 0 -16 129 -41 217 -41 48 0 106 -5 128 -11 48
-12 105 -40 105 -52 0 -8 41 -27 89 -42 16 -5 21 -4 17 4 -4 6 -17 12 -29 12
-18 1 -19 2 -4 6 18 5 73 -24 63 -34 -2 -3 12 -23 32 -45 27 -29 38 -51 40
-79 2 -21 2 -39 -1 -39 -2 0 -18 7 -35 16 -46 22 -53 12 -46 -60 4 -39 2 -71
-5 -82 -10 -18 -10 -17 -11 4 0 12 -6 22 -12 22 -9 0 -8 4 2 10 13 9 13 10 0
10 -16 0 -20 6 -61 91 -14 30 -35 62 -47 72 -20 19 -21 18 -26 -25 -3 -23 -8
-65 -10 -93 -3 -27 -9 -64 -14 -82 -6 -17 -8 -34 -5 -36 2 -3 1 -21 -2 -40 -8
-42 -34 -41 -29 1 3 22 2 23 -4 6 -5 -17 -12 -20 -28 -14 -17 7 -20 15 -17 34
3 14 12 26 20 26 8 0 11 -4 8 -10 -3 -5 -1 -10 4 -10 6 0 11 5 11 12 0 6 7 3
15 -8 17 -22 20 -12 5 17 -7 13 -7 19 0 19 5 0 10 5 10 11 0 5 -4 7 -10 4 -5
-3 -10 1 -10 10 0 24 -26 29 -61 11 -18 -9 -34 -16 -36 -16 -9 0 23 26 40 33
22 8 22 46 1 54 -9 3 -25 1 -35 -5 -24 -15 -32 -15 -23 1 5 7 -2 5 -16 -4 -14
-9 -28 -27 -31 -40 -5 -19 -7 -16 -6 13 0 38 -20 68 -47 68 -24 0 -19 18 7 23
16 3 13 5 -10 6 -27 1 -31 -2 -26 -16 4 -12 -1 -9 -15 7 -23 27 -29 21 -12
-11 6 -10 11 -71 12 -134 0 -63 4 -115 8 -115 4 0 4 -19 0 -42 -4 -24 -11 -75
-15 -115 -7 -68 -6 -72 18 -87 13 -9 32 -14 41 -10 9 3 16 1 16 -4 0 -12 -19
-26 -35 -27 -5 0 -9 -8 -9 -17 1 -10 -4 -14 -12 -11 -8 3 -14 0 -14 -6 0 -6
-4 -11 -10 -11 -5 0 -7 8 -4 18 5 14 4 14 -4 2 -6 -8 -9 -17 -7 -21 6 -9 -43
-54 -51 -47 -3 4 0 16 6 28 7 13 13 98 16 223 2 111 7 225 10 252 18 152 10
296 -15 256 -6 -9 -11 -10 -15 -2 -10 16 -33 13 -40 -5 -4 -10 -2 -13 7 -7 6
4 0 -8 -15 -26 -16 -18 -29 -42 -29 -54 -1 -12 -2 -29 -3 -39 -2 -31 -16 -31
-16 0 0 18 -5 32 -11 32 -5 0 -7 5 -4 10 7 11 -23 9 -43 -4 -7 -4 -12 -4 -11
1 3 20 -2 33 -13 31 -7 -2 -12 2 -11 8 3 16 -29 14 -49 -3 -11 -10 -18 -11
-23 -4 -11 19 -25 12 -25 -13 0 -13 6 -26 13 -29 6 -3 2 -4 -10 -4 -20 1 -27
8 -25 28 2 13 -52 2 -56 -11 -2 -9 0 -11 5 -5 15 18 32 15 30 -5 -2 -26 -21
-25 -46 1 -19 21 -20 21 -15 1 4 -13 -1 -25 -15 -34 -12 -8 -19 -17 -16 -19 2
-3 -8 -5 -23 -4 -15 0 -31 -4 -35 -10 -5 -6 -7 -3 -3 7 6 19 -16 21 -41 5 -7
-5 -13 -4 -13 2 0 5 8 15 18 20 10 6 12 11 4 11 -8 0 -10 5 -6 13 4 6 4 9 0 5
-4 -3 -6 -9 -4 -12 2 -3 -6 -12 -18 -20 -28 -20 -96 -4 -87 20 5 14 3 14 -15
3 -11 -7 -19 -16 -17 -19 2 -3 -16 -5 -40 -5 -24 0 -41 3 -40 6 2 3 -11 5 -30
5 -47 -1 -34 -13 31 -26 31 -7 86 -22 123 -35 37 -12 86 -26 109 -30 99 -16
133 -109 48 -131 -49 -12 -288 26 -394 62 -57 20 -106 34 -109 31 -8 -9 8 -28
19 -25 6 2 24 -9 41 -25 22 -20 32 -25 38 -15 6 9 19 9 61 -4 29 -9 71 -19 93
-23 22 -4 68 -21 102 -39 46 -25 65 -30 74 -22 8 8 10 5 4 -14 -9 -34 -48 -67
-95 -81 -22 -7 -37 -16 -34 -20 3 -5 -2 -6 -10 -3 -13 5 -33 -28 -28 -47 0 -3
-9 -6 -21 -5 -14 1 -23 8 -25 23 -2 12 -10 24 -19 27 -11 5 -13 2 -8 -11 44
-107 63 -296 36 -361 -23 -55 -38 -39 -43 44 -3 42 -9 79 -15 83 -5 3 -14 33
-20 66 -10 56 -69 235 -86 263 -5 7 -12 10 -17 7 -11 -7 -50 67 -50 94 0 11
-7 27 -16 35 -17 18 -59 22 -49 5 4 -6 14 -8 22 -4 13 4 14 3 3 -10 -11 -14
-15 -97 -7 -172 4 -41 -18 -28 -27 15 -7 35 -13 43 -27 39 -25 -7 -33 21 -14
50 9 13 13 28 10 33 -10 16 13 20 29 4 14 -13 16 -13 16 0 0 18 -29 25 -52 12
-12 -7 -22 -6 -35 6 -10 8 -34 23 -53 33 -19 10 -45 27 -57 38 -13 11 -35 22
-49 23 -43 5 -51 11 -57 43 l-6 31 -75 0 c-41 0 -76 -4 -78 -9 -1 -5 -43 -28
-93 -52 -91 -43 -145 -85 -145 -113 0 -8 -9 -18 -20 -21 -13 -4 -23 -18 -27
-36 -3 -16 -12 -29 -19 -29 -8 0 -14 -8 -14 -19 0 -10 -7 -24 -15 -31 -8 -7
-15 -21 -15 -30 0 -10 -11 -32 -25 -48 -17 -21 -21 -32 -13 -34 10 -4 10 -10
0 -32 -6 -15 -12 -37 -12 -50 0 -12 -11 -33 -25 -46 -14 -13 -25 -30 -25 -37
0 -8 -7 -16 -15 -19 -12 -5 -14 -20 -11 -68 2 -33 1 -44 -1 -23 -6 49 -23 48
-23 -3 0 -27 -4 -40 -14 -40 -7 0 -16 -14 -20 -31 -7 -38 23 -129 43 -129 9 0
12 -8 9 -25 -3 -13 -1 -22 3 -19 5 3 9 1 9 -5 0 -5 6 -16 14 -24 9 -9 11 -19
5 -28 -7 -11 -9 -11 -9 4 0 9 -5 17 -11 17 -12 0 -9 -92 4 -101 5 -4 4 -15 -1
-25 -6 -11 -16 -39 -23 -64 -7 -25 -21 -56 -31 -70 -13 -19 -18 -49 -19 -127
-2 -57 0 -106 4 -110 4 -3 7 2 7 13 0 10 5 26 10 34 7 10 8 0 4 -35 -3 -27
-10 -55 -16 -62 -14 -18 -59 -16 -110 4 -100 38 -141 97 -153 218 -4 38 -10
76 -14 85 -9 16 -5 330 4 338 3 3 6 -10 6 -29 10 -254 15 -329 24 -327 6 2 10
32 10 68 0 46 5 74 17 92 11 16 20 54 22 91 2 36 12 86 21 113 10 30 15 72 13
111 -3 62 -2 64 29 83 24 14 34 29 38 57 4 21 14 64 23 96 12 42 18 53 24 40
6 -15 7 -15 7 5 1 12 -4 22 -10 22 -7 0 -10 22 -7 65 4 56 3 65 -10 60 -12 -4
-13 -3 -2 10 7 8 17 12 23 8 6 -3 7 -1 3 6 -5 7 4 35 17 64 14 29 31 67 38 85
6 17 15 32 20 32 5 0 9 7 9 15 0 8 4 15 8 15 4 0 49 40 99 89 64 62 101 91
124 96 19 4 36 11 39 14 9 13 85 48 117 55 18 4 41 3 52 -4 13 -6 27 -7 38 -1
43 21 95 41 109 41 9 0 30 6 47 14 60 28 152 50 217 52 36 1 77 5 92 9 15 4
39 4 54 1 21 -6 24 -9 14 -21 -15 -18 -37 -19 -43 -2 -2 6 -8 8 -13 4 -26 -25
90 -33 166 -11 14 4 113 8 220 9 107 1 205 5 218 9 23 8 23 9 6 27 -16 18 -27
19 -103 13 -47 -3 -90 -9 -95 -12 -5 -3 -6 0 -2 6 5 8 -2 12 -21 13 -15 0 -37
4 -48 8 -23 9 49 21 131 21 29 0 55 4 59 10 3 5 34 8 70 7 36 -1 61 -6 58 -11
-4 -5 4 -6 18 -3 13 4 50 7 82 7 33 0 56 4 52 9 -6 10 32 20 53 15 8 -2 23 -4
33 -4z m65 -464 c-4 -17 -7 -37 -8 -43 -1 -7 -6 -13 -11 -13 -5 0 -6 -7 -3
-16 3 -8 2 -12 -4 -9 -6 3 -10 -4 -10 -16 0 -16 -5 -20 -20 -16 -27 7 -32 -4
-14 -37 16 -33 19 -60 4 -51 -5 3 -10 1 -10 -4 0 -22 -16 -9 -33 27 -10 20
-32 45 -48 55 -26 15 -30 21 -24 46 3 17 2 32 -4 36 -16 9 -13 25 4 25 8 0 15
7 15 15 0 22 30 18 57 -7 21 -19 26 -20 34 -8 8 12 9 11 5 -5 -3 -11 -1 -27 4
-35 9 -13 11 -13 20 0 5 8 10 11 11 5 0 -5 6 6 13 25 8 20 10 40 5 46 -6 7 -3
11 7 11 12 0 14 -7 10 -31z m-232 -21 c3 -9 -1 -18 -9 -21 -23 -9 -26 -35 -10
-88 19 -62 19 -62 -6 -84 -19 -19 -20 -28 -16 -193 3 -96 6 -185 8 -199 4 -23
1 -25 -28 -22 -27 3 -35 -1 -44 -22 -15 -32 -30 -37 -71 -25 -18 5 -55 12 -83
15 -29 3 -59 13 -71 25 -11 10 -27 19 -35 19 -10 1 -8 4 5 11 14 9 20 8 26 -1
5 -7 8 -2 8 15 0 35 36 68 67 62 14 -2 26 0 27 4 2 5 18 5 37 -1 18 -5 31 -7
27 -3 -3 4 1 14 9 23 17 19 28 100 14 100 -5 0 -9 -4 -9 -10 0 -5 -4 -10 -10
-10 -5 0 -10 6 -10 14 0 15 34 31 48 22 12 -7 6 -84 -8 -102 -11 -12 -10 -17
2 -27 8 -7 18 -20 22 -30 5 -15 2 -17 -14 -12 -13 4 -22 1 -26 -9 -7 -19 -31
-21 -36 -4 -3 8 -15 5 -36 -11 -36 -25 -42 -51 -12 -51 11 0 20 -5 20 -12 0
-6 9 -3 21 8 11 10 16 20 10 22 -15 5 -3 22 15 22 10 0 13 -6 9 -19 -4 -15 -1
-18 18 -14 58 11 93 67 72 116 -4 10 -3 17 3 17 6 0 5 11 -4 28 -21 43 -35
129 -27 175 4 29 3 38 -5 33 -8 -5 -10 -2 -6 8 3 9 11 16 18 16 7 0 7 3 -2 8
-10 7 -9 14 6 33 22 28 34 67 23 74 -14 8 1 70 22 93 24 26 33 27 41 7z m1058
-34 c16 -22 15 -27 -10 -83 -24 -56 -25 -65 -15 -122 12 -65 47 -156 61 -156
25 0 46 30 45 64 -1 20 3 36 8 36 5 0 9 -7 9 -16 0 -9 6 -14 13 -12 7 3 14 30
17 69 4 51 6 57 10 29 7 -48 0 -220 -8 -220 -4 0 -7 12 -7 28 0 46 -20 35 -23
-14 -2 -34 2 -52 15 -66 17 -20 17 -20 -2 -17 -13 3 -22 17 -30 46 -14 59 -29
72 -55 48 -18 -16 -19 -20 -5 -28 28 -15 5 -27 -56 -27 -36 0 -58 4 -54 10 3
5 12 7 19 4 25 -9 29 17 6 33 -17 12 -19 17 -9 24 7 4 11 11 7 14 -3 3 -13 -2
-23 -11 -13 -14 -14 -19 -3 -25 10 -7 9 -9 -4 -9 -10 0 -18 6 -18 13 0 9 -3 8
-9 -2 -7 -11 -9 -11 -13 0 -4 12 -8 12 -20 1 -9 -7 -18 -9 -20 -5 -3 4 -3 3
-2 -4 2 -9 -6 -10 -29 -6 -45 10 -204 10 -252 0 -28 -5 -36 -5 -25 2 12 9 11
11 -7 11 -12 0 -25 -4 -28 -10 -3 -5 -11 -10 -18 -10 -6 0 -3 6 8 14 30 20
123 30 285 31 140 0 145 1 141 20 -11 51 -4 174 13 230 10 33 22 78 27 100 15
66 17 68 32 53 7 -7 20 -24 29 -37z m-1183 -67 c-7 -9 -14 -26 -16 -37 -3 -18
0 -17 17 8 11 17 20 25 20 18 0 -6 -4 -15 -10 -18 -5 -3 -10 -13 -10 -22 0
-12 5 -11 20 7 11 13 20 18 20 12 0 -7 -9 -21 -21 -33 -15 -15 -24 -18 -32
-10 -6 6 -15 11 -21 11 -5 0 -1 -7 10 -15 19 -14 19 -14 -1 -15 -16 0 -17 -2
-5 -10 10 -6 17 -5 23 5 11 21 26 19 23 -2 -2 -10 -5 -16 -8 -13 -3 3 -16 -4
-29 -15 -19 -17 -22 -18 -16 -2 4 11 1 17 -9 17 -8 0 -12 5 -8 11 4 7 -1 10
-12 7 -12 -2 -19 -12 -18 -26 0 -12 -3 -22 -7 -22 -14 0 -16 -40 -3 -51 8 -7
13 -18 10 -26 -6 -16 -1 -16 25 -3 24 14 26 -5 2 -20 -16 -10 -15 -11 5 -7 12
3 20 1 16 -4 -3 -5 -10 -9 -16 -9 -6 0 -17 -8 -24 -17 -7 -10 -14 -13 -14 -8
0 6 -23 11 -50 12 -30 1 -57 9 -66 18 -9 8 -11 15 -5 15 6 0 11 5 11 10 0 6
-6 10 -12 8 -7 -2 -13 2 -13 7 0 6 6 9 13 9 6 -1 12 3 12 8 0 6 -11 8 -25 5
-32 -6 -28 13 6 30 13 7 20 13 15 13 -13 0 26 29 39 30 6 0 3 -5 -5 -10 -13
-8 -13 -10 -1 -10 22 0 -20 -29 -44 -31 -14 0 -12 -3 9 -10 17 -4 32 -6 35 -4
2 3 -2 5 -10 6 -8 1 -3 4 11 8 14 4 24 13 23 19 -2 7 4 12 13 12 9 0 12 -5 8
-12 -4 -7 -3 -8 4 -4 8 5 8 15 2 32 -7 17 -6 32 2 47 11 21 11 21 18 2 7 -19
8 -19 15 -2 5 12 1 23 -11 32 -18 13 -18 14 -1 15 9 0 17 -4 17 -8 0 -5 6 -17
14 -28 10 -13 14 -14 13 -4 -2 8 -6 20 -10 27 -5 7 -1 9 13 6 22 -6 28 12 8
20 -8 4 -7 6 3 6 9 1 22 8 29 16 7 8 15 15 17 15 3 0 -1 -7 -8 -16z m678 -37
c1 -11 -1 -17 -4 -13 -7 7 -33 -13 -33 -26 0 -5 4 -7 8 -4 4 2 6 -11 4 -30 -2
-18 -8 -31 -14 -28 -5 3 -7 12 -4 20 3 8 1 14 -4 14 -15 0 -12 -26 5 -40 20
-17 19 -23 -10 -54 -27 -29 -45 -34 -45 -10 0 8 -5 12 -10 9 -8 -5 -7 -11 1
-21 15 -18 3 -32 -13 -16 -8 8 -15 9 -25 1 -10 -9 -13 -5 -13 22 0 19 -3 45
-6 59 l-5 25 15 -25 c15 -24 15 -25 16 -3 0 13 10 28 23 34 21 12 21 11 7 -7
-14 -18 -14 -18 3 -5 20 16 22 37 5 48 -7 4 -14 16 -14 25 -1 10 2 15 7 12 5
-3 9 -12 9 -19 0 -9 6 -12 18 -9 14 5 15 4 2 -5 -13 -9 -12 -11 6 -11 29 0 40
40 17 58 -9 6 -12 12 -6 12 7 0 15 -4 18 -10 9 -15 25 -12 19 3 -3 8 1 14 9
14 7 0 14 -9 14 -20z m875 -37 c48 -23 52 -24 43 -10 -3 6 -1 10 5 10 16 0 59
-102 58 -138 -1 -42 -5 -37 -28 39 -10 35 -19 54 -19 42 -1 -12 -6 -33 -12
-46 -13 -29 5 -105 27 -114 26 -10 64 18 64 46 1 24 2 24 12 7 6 -10 10 -44
10 -75 0 -31 4 -61 9 -67 14 -17 29 -115 36 -224 7 -132 7 -143 2 -251 -3 -78
-6 -93 -16 -80 -7 9 -13 21 -13 28 0 17 -33 86 -45 96 -6 5 -3 7 8 3 14 -4 17
0 15 22 -2 23 -6 28 -23 24 -16 -3 -26 6 -43 40 -13 24 -27 50 -32 58 -19 31
-110 233 -110 245 0 7 -10 34 -22 61 -26 57 -27 63 -34 129 -3 28 -9 54 -15
60 -16 16 -10 33 16 39 35 9 33 36 -2 36 -16 1 -39 7 -53 16 -24 14 -22 14 30
8 30 -3 60 -12 66 -19 5 -8 23 -17 40 -21 27 -7 28 -6 14 11 -8 10 -28 24 -45
31 -27 12 -28 13 -7 14 13 0 42 -9 64 -20z m-662 -406 c45 -41 51 -70 16 -83
-25 -10 -41 -37 -26 -46 5 -3 18 -1 29 5 26 13 36 -2 20 -32 -19 -39 -102
-119 -139 -135 -19 -8 -77 -28 -129 -45 -52 -16 -118 -40 -147 -53 -79 -35
-152 -49 -203 -38 -38 7 -46 13 -53 38 -9 33 7 122 29 167 7 15 22 29 33 33
11 3 20 10 20 14 0 36 195 161 258 166 20 2 55 9 77 15 22 7 66 13 98 15 32 1
61 5 64 9 9 9 10 9 53 -30z m-1720 -205 c0 -14 72 -16 77 -2 4 10 46 12 201 9
108 -2 198 -8 199 -12 4 -13 210 -9 327 5 117 15 143 10 153 -27 15 -56 9
-119 -15 -149 -12 -15 -27 -40 -33 -55 -6 -16 -18 -28 -27 -28 -9 0 -26 -12
-38 -27 -13 -17 -26 -24 -37 -20 -16 6 -20 17 -32 90 -7 43 -25 50 -25 8 0
-83 -56 -128 -86 -69 -23 44 -51 34 -86 -32 -42 -79 -54 -90 -104 -90 -37 0
-49 6 -91 45 -26 25 -51 45 -55 45 -4 0 -8 14 -8 30 0 25 -10 38 -59 76 -72
56 -106 74 -137 74 -12 0 -26 5 -30 11 -5 9 3 10 30 5 20 -4 36 -3 36 2 0 5
-33 12 -72 16 -40 4 -82 9 -93 12 -16 4 -17 3 -5 -5 8 -6 33 -11 55 -12 l40
-1 -39 -10 c-28 -8 -58 -7 -101 1 -34 6 -109 11 -166 11 -76 0 -100 3 -89 11
11 8 12 12 3 16 -27 10 -12 31 27 37 22 3 40 11 40 16 0 6 44 10 111 10 60 0
108 4 105 8 -3 5 1 9 9 9 8 0 15 -4 15 -8z m-1113 -177 c19 -262 28 -335 47
-369 16 -31 61 -61 116 -78 14 -4 42 -19 62 -34 l38 -26 0 -75 c0 -96 14 -144
52 -183 53 -56 75 -89 138 -214 67 -133 114 -187 198 -226 42 -19 64 -22 215
-22 92 0 167 -3 167 -7 0 -12 -111 -20 -224 -16 -100 4 -120 8 -171 33 -76 39
-135 92 -165 152 -13 26 -28 51 -33 54 -5 3 -9 10 -9 15 0 8 -7 28 -19 59 -16
40 -75 128 -93 137 -11 6 -26 18 -33 27 -15 19 -16 15 -13 -79 1 -41 6 -77 11
-80 17 -11 30 -111 26 -197 -5 -96 -24 -203 -37 -203 -4 0 -10 -9 -13 -20 -7
-26 -24 -26 -32 1 -4 11 -9 18 -12 16 -6 -7 23 -125 53 -214 13 -39 24 -75 24
-80 -1 -13 -39 60 -40 76 0 7 -18 63 -41 124 -22 61 -38 118 -36 127 2 9 -4
63 -15 121 -36 198 -39 234 -33 337 6 85 4 107 -9 127 -19 28 -33 31 -73 13
l-27 -13 34 -5 35 -5 0 -62 c0 -34 -3 -65 -7 -68 -4 -4 -20 2 -35 13 -57 41
-93 29 -93 -32 -1 -40 -1 -41 -15 -16 -18 32 -10 124 13 165 19 31 45 42 103
44 22 1 39 7 42 15 3 8 -6 41 -19 75 -14 34 -29 95 -33 136 -5 42 -13 81 -19
88 -21 25 -62 561 -42 540 3 -2 10 -80 17 -171z m3097 67 c31 -14 39 -34 26
-60 -11 -20 -25 -24 -72 -20 -44 3 -312 -30 -322 -40 -6 -5 -19 -9 -30 -10
-21 0 -21 0 -1 -9 18 -8 17 -9 -7 -9 -16 -1 -28 4 -28 9 0 13 -31 13 -50 -1
-12 -8 -10 -9 7 -4 12 3 24 1 28 -4 10 -17 -44 -25 -73 -11 l-27 12 36 12 c20
7 52 22 71 34 20 12 44 22 55 22 11 0 36 10 55 23 22 16 68 30 133 41 55 10
107 19 115 21 34 6 60 4 84 -6z m-684 -204 c8 -10 21 -13 39 -8 35 8 25 -1
-22 -20 -37 -16 -37 -16 -26 6 12 22 12 22 -9 3 -12 -10 -19 -23 -16 -27 5 -9
4 -10 -34 -14 -13 -1 -29 -8 -35 -15 -9 -10 -9 -11 3 -6 8 4 6 0 -5 -8 -11 -9
-25 -14 -32 -12 -18 7 -44 -4 -37 -15 3 -5 -2 -9 -10 -9 -8 0 -19 -7 -23 -15
-5 -8 -24 -26 -43 -40 -29 -21 -35 -23 -43 -10 -9 17 26 105 42 105 6 0 11 5
11 11 0 15 42 48 61 49 9 0 19 3 23 8 7 7 93 28 127 31 9 0 22 -6 29 -14z
m1114 -105 c-11 -65 -25 -100 -51 -120 -35 -28 -84 -26 -116 4 -17 16 -29 21
-33 14 -4 -6 1 -15 10 -20 9 -5 16 -16 16 -25 0 -9 21 -41 47 -72 26 -31 37
-47 24 -36 l-24 20 12 -24 c10 -18 10 -25 0 -35 -9 -8 -10 -8 -5 2 9 16 -12
36 -41 39 -16 2 -21 -2 -17 -12 4 -8 1 -15 -4 -15 -6 0 -13 -12 -15 -27 -3
-18 -5 -10 -7 22 -6 114 -19 187 -32 179 -7 -5 -8 5 -3 32 6 34 19 54 35 54 3
0 16 -16 29 -36 30 -43 55 -58 87 -50 49 13 63 82 39 186 -6 23 -4 22 24 -10
26 -29 30 -40 25 -70z m-2750 13 c6 -14 9 -15 16 -4 7 12 21 10 87 -11 73 -24
76 -26 53 -36 -19 -9 0 -10 80 -6 61 3 116 1 130 -5 20 -8 12 -10 -46 -10 -75
-1 -347 -54 -496 -96 -106 -30 -118 -31 -84 -4 14 11 26 27 26 35 0 28 58 74
130 103 41 16 76 34 78 40 5 16 19 13 26 -6z m280 -192 c6 -9 -31 -19 -161
-41 -45 -8 -108 -30 -168 -60 -106 -51 -132 -47 -68 9 38 34 133 73 223 92 52
10 168 10 174 0z m2161 -173 c-13 -193 -20 -223 -61 -253 -11 -7 -19 -19 -19
-26 0 -17 -194 -19 -215 -3 -25 20 -145 43 -164 32 -26 -14 -60 -2 -100 36
-31 28 -34 35 -21 46 8 6 18 9 23 6 6 -3 15 1 22 9 13 16 65 21 74 6 3 -5 18
-7 33 -6 170 17 207 22 235 30 82 24 129 68 163 154 11 28 23 51 27 51 5 0 6
-37 3 -82z m271 2 c4 -22 10 -43 14 -45 9 -6 1 -45 -13 -62 -5 -7 -7 -23 -3
-36 3 -14 -1 -31 -10 -43 -8 -10 -12 -12 -8 -4 4 8 3 12 -1 7 -9 -8 -10 -10
-21 -92 -6 -45 -6 -49 9 -37 9 8 19 22 22 33 4 11 11 17 16 14 5 -3 6 0 3 8
-6 16 21 42 34 33 5 -3 7 -28 4 -56 -3 -35 -1 -50 7 -50 7 0 10 4 6 9 -3 5 -1
12 5 16 5 3 10 16 10 28 0 12 5 29 11 37 8 12 9 11 4 -6 -3 -12 -6 -38 -7 -58
-1 -20 -5 -36 -10 -36 -5 0 -6 -4 -3 -10 3 -5 1 -27 -4 -47 -6 -21 -13 -55
-15 -76 -8 -57 -34 -142 -74 -237 -19 -47 -35 -90 -35 -97 0 -6 -6 -9 -14 -6
-21 8 -15 35 26 120 50 102 74 180 59 189 -13 8 -41 -28 -45 -60 -4 -27 -55
-100 -68 -98 -5 1 -10 14 -11 30 0 31 -10 52 -25 52 -5 0 -9 -7 -9 -17 0 -9
-2 -14 -5 -11 -10 10 19 86 30 81 7 -2 12 3 12 11 0 8 -4 13 -9 10 -4 -3 -8 2
-8 10 0 10 6 14 18 10 12 -4 10 0 -5 12 -13 9 -23 24 -23 32 0 13 2 13 13 -2
13 -17 14 -17 30 -1 16 15 22 12 18 -9 -1 -5 5 -6 12 -3 8 3 18 2 23 -3 5 -5
17 -3 26 4 16 12 16 14 -7 26 -14 7 -25 17 -25 22 0 4 -5 8 -11 8 -5 0 -8 -4
-5 -9 9 -15 -41 -5 -68 13 l-26 16 6 -30 c5 -20 3 -30 -6 -30 -10 0 -10 -3 -1
-14 9 -11 9 -15 -1 -19 -10 -4 -8 -10 6 -21 11 -9 16 -16 12 -16 -5 0 -22 11
-38 25 -24 20 -33 23 -44 14 -13 -10 -12 -14 1 -29 8 -9 15 -21 15 -26 0 -5
-5 -1 -11 10 -9 15 -13 16 -21 5 -8 -11 -9 -10 -4 3 3 11 -1 18 -12 20 -12 3
-8 9 17 22 24 13 36 15 44 7 20 -20 31 -12 12 9 -17 18 -16 21 13 58 37 46 62
68 62 54 0 -5 -7 -15 -15 -22 -8 -7 -12 -16 -9 -21 9 -15 20 -10 30 14 6 12 9
16 7 8 -2 -9 2 -11 14 -7 15 6 15 4 -2 -14 -10 -11 -15 -23 -12 -27 4 -4 13 2
20 12 13 17 14 17 33 -2 24 -25 55 -37 48 -19 -3 7 2 13 11 13 8 0 15 -4 15
-9 0 -4 5 -8 10 -8 6 0 8 11 4 25 -4 15 -2 25 5 25 6 0 8 7 5 15 -8 19 -24 9
-24 -15 0 -28 -15 -32 -36 -8 -19 20 -19 21 4 14 12 -4 22 -3 22 2 0 14 -22
21 -57 18 -23 -1 -29 2 -25 13 4 10 0 13 -14 9 -22 -6 -26 11 -28 114 -1 36
-4 64 -8 61 -5 -2 -8 16 -8 41 0 35 -5 49 -20 58 -12 8 -20 23 -19 38 1 21 2
22 6 5 9 -34 24 -47 40 -33 12 10 13 7 8 -18 -5 -24 -4 -26 4 -7 6 14 16 20
28 17 10 -3 28 4 40 16 18 16 21 25 13 45 -6 16 -6 25 0 25 5 0 13 -18 16 -40z
m-1387 -57 c25 -22 28 -64 8 -117 l-14 -38 -17 23 c-9 13 -16 19 -16 13 0 -6
7 -19 15 -30 18 -24 19 -54 1 -54 -11 0 -37 45 -42 70 0 3 -7 18 -15 34 -11
23 -11 30 -1 34 6 2 12 13 12 23 0 28 18 59 34 59 8 0 23 -8 35 -17z m-1590
-212 c33 -95 75 -173 118 -218 56 -60 110 -75 268 -75 155 -1 263 22 393 84
90 43 122 46 48 5 -77 -43 -237 -97 -319 -109 -113 -15 -293 -7 -335 15 -66
35 -108 84 -142 164 -19 43 -37 83 -41 88 -15 20 -39 134 -39 182 0 76 14 73
21 -4 3 -37 16 -97 28 -132z m1311 159 c0 -38 28 -91 47 -90 33 4 38 0 108
-81 38 -44 84 -89 101 -100 35 -21 191 -86 244 -101 38 -11 70 -35 70 -52 0
-8 -66 -11 -217 -10 -119 0 -208 -2 -199 -6 10 -3 -44 -6 -121 -7 -141 -1
-159 -3 -311 -29 -48 -8 -103 -17 -123 -19 -45 -5 -89 -22 -111 -42 -29 -26
-21 -8 17 37 19 23 35 48 35 55 0 17 52 61 82 70 55 17 133 102 183 198 10 22
29 47 42 57 13 10 26 35 31 56 11 55 41 53 66 -3 30 -66 47 -56 39 22 -4 46
-2 65 6 65 6 0 11 -9 11 -20z m-1134 -103 c29 -38 61 -75 70 -82 17 -12 13
-52 -5 -41 -5 3 -14 -1 -20 -8 -10 -11 -8 -17 6 -25 17 -10 17 -10 0 -11 -10
0 -15 -4 -12 -10 3 -5 2 -10 -3 -10 -6 0 -12 -7 -16 -15 -3 -8 0 -14 7 -12 7
1 13 -12 15 -33 2 -19 10 -41 19 -47 16 -12 16 -13 1 -13 -9 0 -19 4 -23 10
-3 5 -11 7 -18 4 -7 -2 -29 9 -49 26 -56 46 -127 198 -142 303 l-6 38 62 -3
62 -3 52 -68z m1628 -92 c10 -8 42 -22 70 -31 28 -9 56 -21 62 -26 7 -5 38
-13 70 -18 71 -12 81 -21 65 -56 -8 -17 -8 -31 -2 -37 17 -17 32 4 29 41 -3
33 -1 36 32 45 19 5 64 5 100 1 36 -4 69 -6 75 -5 22 6 44 3 118 -18 42 -12
92 -23 110 -26 50 -7 148 -62 163 -91 17 -33 18 -88 2 -101 -23 -18 -99 -22
-146 -7 -56 16 -180 5 -167 -16 3 -5 1 -11 -5 -15 -6 -4 -8 -11 -5 -16 4 -5 1
-9 -4 -9 -14 0 -14 13 1 28 9 9 2 12 -33 12 -34 0 -58 8 -99 35 -80 51 -172
95 -197 95 -12 0 -23 5 -25 11 -2 6 -25 13 -51 16 -67 8 -67 19 -1 28 52 6 55
8 40 23 -11 11 -42 19 -99 23 -58 4 -97 14 -132 31 -28 14 -64 29 -81 32 -18
4 -40 17 -50 28 -19 21 -19 21 6 16 14 -3 32 -9 41 -12 11 -5 18 -1 22 13 4
16 13 21 39 21 18 0 42 -7 52 -15z m-2349 -171 c8 -40 36 -117 64 -175 69
-145 89 -194 97 -237 4 -20 17 -59 30 -87 13 -27 25 -66 28 -85 3 -19 11 -80
19 -135 15 -114 31 -145 87 -170 47 -21 49 -26 54 -135 4 -92 14 -121 80 -219
24 -35 36 -64 35 -85 l-1 -31 -8 27 c-4 15 -26 49 -48 75 -60 71 -72 107 -72
217 0 90 -1 95 -26 115 -15 12 -32 21 -38 21 -7 0 -25 13 -41 30 -26 27 -29
38 -36 128 -5 71 -16 121 -37 178 -17 43 -35 107 -40 141 -6 34 -21 79 -35
100 -72 116 -118 226 -136 326 -14 78 -16 107 -7 122 10 18 11 17 14 -15 1
-19 9 -67 17 -106z m2540 -298 c17 -12 18 -15 3 -30 -9 -9 -26 -16 -38 -16
-12 0 -18 -4 -15 -10 3 -5 25 -10 48 -10 35 0 46 -5 66 -30 13 -17 31 -30 41
-30 20 0 160 -147 160 -167 0 -7 5 -13 10 -13 11 0 11 -70 0 -70 -3 0 -14 -7
-24 -15 -17 -13 -17 -17 -5 -32 13 -16 12 -17 -4 -4 -10 8 -15 21 -12 29 3 8
-9 29 -30 50 -43 45 -57 37 -15 -8 17 -18 28 -35 25 -38 -7 -7 -85 80 -85 96
0 6 -6 12 -14 12 -8 0 -16 4 -18 8 -1 5 -39 35 -83 67 -92 68 -105 80 -105 94
0 6 -6 11 -13 11 -21 0 -58 45 -52 63 11 28 81 42 118 24 24 -11 33 -2 17 18
-16 19 0 20 25 1z m-187 -224 c136 -68 223 -135 234 -180 5 -18 -2 -15 -50 22
-99 75 -200 114 -345 131 -55 6 -147 -8 -172 -26 -6 -5 -39 -4 -72 1 -83 11
-195 -4 -242 -32 -20 -13 -52 -30 -71 -39 -19 -9 -64 -39 -100 -68 -36 -28
-74 -59 -85 -68 -11 -8 -35 -30 -54 -47 -54 -50 -22 -1 63 95 69 79 84 90 191
144 115 59 115 59 212 61 85 2 110 7 186 38 49 19 95 32 102 30 7 -3 16 0 20
6 10 16 36 6 183 -68z m-954 -78 c-43 -68 -70 -97 -84 -89 -6 3 -8 -11 -5 -35
3 -29 -2 -51 -16 -73 -17 -29 -19 -30 -19 -9 0 12 5 22 10 22 6 0 10 9 10 19
0 24 -32 23 -42 -2 -4 -10 -12 -16 -16 -13 -5 3 -15 -6 -22 -19 -15 -28 -54
-34 -64 -9 -9 25 -7 142 3 149 5 3 12 18 16 34 8 36 37 64 100 96 62 31 102
32 126 3 11 -11 20 -16 20 -10 1 7 3 17 4 22 1 6 4 16 5 23 2 6 5 -2 7 -19 3
-24 -5 -47 -33 -90z m903 -16 c29 -12 50 -25 47 -30 -3 -4 2 -5 10 -2 19 7 54
-12 94 -52 34 -35 39 -49 22 -59 -6 -4 -8 -11 -4 -16 3 -6 -18 3 -48 19 -53
30 -190 75 -260 87 -21 3 -38 10 -38 15 0 4 14 20 31 34 38 32 76 33 146 4z
m122 -229 c104 -18 189 -74 225 -149 30 -64 36 -98 23 -130 -20 -45 -41 -24
-35 34 3 25 2 46 -3 46 -5 0 -9 -4 -9 -10 0 -5 -7 -10 -15 -10 -11 0 -14 7 -9
25 4 15 2 25 -5 25 -6 0 -11 -11 -11 -25 0 -14 -4 -25 -10 -25 -5 0 -7 6 -4
14 3 9 -6 15 -28 20 -18 4 -34 3 -35 -1 -5 -13 -106 -7 -132 6 -14 8 -56 12
-114 10 -107 -3 -139 -12 -131 -34 4 -10 0 -15 -12 -16 -11 -1 -3 -5 16 -9 29
-6 30 -8 10 -9 -15 0 -31 -6 -36 -11 -21 -21 -124 -18 -208 6 -64 18 -109 23
-226 25 -87 1 -154 -2 -166 -9 -22 -12 -94 -27 -94 -19 0 2 17 16 38 30 20 14
57 44 82 66 30 28 63 47 100 57 30 8 72 22 93 30 21 8 100 19 175 24 75 5 162
14 192 20 30 6 78 14 105 17 28 3 52 7 54 9 8 8 105 4 170 -7z m1995 -285 c59
-60 86 -94 86 -110 0 -13 3 -24 8 -24 4 0 16 -17 27 -37 11 -21 35 -60 53 -86
17 -27 32 -54 32 -59 0 -6 13 -24 30 -39 34 -33 70 -126 70 -181 0 -21 5 -38
10 -38 16 0 12 -47 -5 -54 -8 -3 -15 -11 -15 -19 0 -7 -12 -24 -26 -38 -14
-13 -23 -31 -21 -39 3 -13 -2 -15 -25 -12 -16 3 -39 0 -51 -6 -32 -16 -259
-22 -253 -7 3 8 -5 11 -22 8 -23 -3 -24 -2 -7 6 18 8 16 10 -15 17 -19 5 -38
7 -42 6 -5 -1 -8 2 -8 8 0 6 4 10 9 10 13 0 7 33 -7 38 -7 2 -12 21 -12 43 0
21 -4 39 -8 39 -22 0 -41 81 -46 197 -5 104 -3 128 12 159 13 28 14 38 5 41
-15 5 -17 44 -4 59 5 5 19 39 31 77 13 37 27 67 32 67 5 0 9 10 8 23 -3 35 -2
37 34 37 30 0 46 -11 120 -86z m-1750 -250 c9 -54 23 -100 39 -125 14 -20 15
-32 6 -64 -18 -66 -36 -90 -78 -109 -38 -18 -78 -16 -67 2 3 5 -21 14 -53 19
-54 10 -151 48 -151 58 0 2 13 2 28 -1 19 -4 35 0 50 13 21 16 22 22 13 68 -5
27 -14 51 -20 53 -19 6 -12 27 17 55 24 23 37 27 84 27 42 0 57 4 62 16 6 16
8 16 24 0 23 -20 36 -21 29 -2 -3 8 -3 17 0 20 9 9 12 3 17 -30z m3555 -4528
c-6 -6 -273 -72 -339 -85 -30 -5 -120 -24 -200 -41 -235 -50 -242 -51 -311
-51 -53 0 -74 -4 -100 -22 -22 -15 -118 -44 -264 -80 -236 -59 -302 -70 -205
-36 94 34 143 47 195 54 28 4 70 19 95 34 57 35 190 76 305 96 50 8 124 24
165 34 41 11 111 23 155 26 44 4 103 14 130 22 100 30 395 69 374 49z"/>
<path d="M6891 7009 c-46 -63 -44 -86 32 -304 18 -52 26 -102 31 -191 7 -136
3 -156 -49 -217 -39 -46 -45 -85 -16 -111 18 -16 19 -15 25 16 4 18 20 58 36
89 23 44 30 72 31 120 1 35 10 122 20 193 24 173 19 330 -13 395 -31 63 -56
65 -97 10z"/>
<path d="M6244 3829 c-4 -6 -8 -33 -9 -59 -1 -25 -14 -76 -28 -112 -33 -82
-48 -179 -51 -328 -1 -95 -6 -124 -24 -165 -28 -61 -37 -139 -28 -238 l8 -75
39 -16 c21 -9 39 -20 39 -26 0 -6 33 -10 80 -10 64 0 80 3 80 15 0 11 11 15
43 15 69 0 87 26 87 128 0 66 3 82 15 82 12 0 15 -16 15 -80 0 -47 4 -80 10
-80 6 0 10 36 10 89 0 87 1 90 31 115 17 14 28 30 24 36 -3 6 0 7 9 4 9 -3 16
-10 16 -14 0 -4 24 -11 54 -14 33 -5 57 -13 60 -22 3 -8 15 -14 26 -14 12 0
20 -7 20 -17 0 -10 3 -13 9 -7 5 5 12 52 15 104 l7 95 -103 105 c-141 143
-176 188 -244 310 -69 124 -129 190 -173 190 -16 0 -33 -5 -37 -11z"/>
<path d="M4048 3476 c-32 -17 -85 -74 -94 -101 -3 -11 -22 -53 -41 -93 -30
-64 -35 -89 -44 -195 -14 -177 -14 -175 26 -352 8 -33 17 -91 20 -130 14 -164
28 -173 40 -27 4 47 11 93 15 101 25 51 50 122 55 159 5 32 11 42 26 42 10 0
19 5 19 10 0 6 9 10 19 10 11 0 21 4 23 10 5 16 151 14 184 -3 72 -37 205
-173 187 -191 -3 -3 9 -13 25 -24 17 -10 41 -31 53 -46 31 -39 64 -50 95 -30
13 9 26 15 28 13 15 -20 36 -55 36 -61 0 -17 -18 -7 -25 15 -6 19 -8 20 -12 4
-3 -12 3 -25 17 -34 17 -12 19 -17 9 -24 -11 -7 -11 -11 -1 -21 10 -10 15 -10
22 2 8 12 12 11 29 -7 14 -14 16 -23 8 -26 -11 -3 24 -38 86 -87 13 -10 49
-23 82 -29 32 -6 69 -18 83 -27 22 -15 23 -15 14 1 -5 10 -74 85 -154 169
-238 248 -313 344 -348 447 -20 59 -32 75 -102 140 -56 51 -89 91 -110 133
-34 67 -167 239 -197 256 -26 13 -41 13 -73 -4z"/>
<path d="M10076 1874 c-3 -26 -6 -86 -6 -134 0 -52 -7 -116 -19 -161 -10 -41
-28 -122 -40 -180 -24 -123 -43 -181 -69 -214 -22 -27 -29 -129 -11 -151 10
-13 -6 -81 -37 -152 -17 -39 -17 -45 -4 -37 16 10 12 -20 -19 -149 -16 -67
-35 -163 -41 -214 -6 -51 -17 -112 -25 -135 -7 -23 -18 -103 -23 -177 -6 -74
-13 -143 -17 -152 -5 -14 -2 -18 12 -18 33 0 52 56 46 133 -3 36 -2 74 2 84 4
10 9 25 10 33 1 8 6 24 13 35 8 15 11 16 12 4 0 -8 -5 -20 -12 -27 -6 -6 -8
-15 -4 -19 4 -4 11 -1 16 8 5 9 17 26 27 38 18 22 18 29 4 141 -12 99 -12 127
-1 165 7 26 16 42 19 36 4 -6 8 12 9 40 1 29 8 57 17 66 11 10 14 26 10 51 -5
28 -4 33 4 22 9 -12 11 -11 11 8 0 13 -4 20 -10 17 -15 -9 -12 9 10 65 20 51
25 95 14 124 -3 9 -10 13 -15 10 -5 -3 -6 2 -3 10 3 9 12 16 20 16 10 0 14 13
14 43 0 23 11 78 24 122 23 75 33 130 71 368 16 105 21 327 6 327 -4 0 -11
-21 -15 -46z"/>
<path d="M5169 1784 c-8 -9 -14 -45 -15 -87 0 -40 -7 -91 -13 -115 -7 -25 -10
-80 -8 -130 2 -48 0 -123 -5 -167 -5 -44 -9 -163 -9 -265 0 -235 -2 -217 13
-202 9 9 12 54 10 155 -1 78 3 205 9 282 6 77 12 173 14 214 3 40 10 99 16
132 6 32 9 73 7 90 -3 18 -2 48 2 66 9 38 -1 51 -21 27z"/>
<path d="M1014 873 c4 -45 24 -111 103 -353 8 -25 34 -106 58 -180 61 -189 78
-236 83 -222 2 7 -5 40 -16 74 -12 35 -25 83 -30 108 -18 82 -44 175 -57 201
-8 14 -23 61 -34 105 -11 43 -31 102 -44 129 -13 28 -30 75 -37 105 -18 79
-32 97 -26 33z"/>
</g>
</svg>
